<svg width="22" height="21" viewBox="0 0 22 21" fill="none" xmlns="http://www.w3.org/2000/svg">
<path d="M20.3115 16.8116L16.759 13.2591L14.0265 12.1302C14.9363 10.8363 15.4238 9.29274 15.422 7.71101C15.422 3.45913 11.9629 0 7.71101 0C3.45913 0 0 3.45913 0 7.71101C0 11.9629 3.45913 15.422 7.71101 15.422C9.3065 15.4238 10.8628 14.928 12.1632 14.0035L13.2892 16.7286L16.8415 20.2813C17.0694 20.5092 17.3398 20.6899 17.6375 20.8132C17.9352 20.9365 18.2542 21 18.5764 21C18.8987 21 19.2177 20.9366 19.5154 20.8133C19.8131 20.69 20.0836 20.5093 20.3114 20.2814C20.5392 20.0536 20.72 19.7831 20.8433 19.4855C20.9666 19.1878 21.0301 18.8687 21.0301 18.5465C21.0301 18.2243 20.9666 17.9053 20.8433 17.6076C20.72 17.3099 20.5393 17.0394 20.3115 16.8116ZM1.402 7.71101C1.402 4.23229 4.23229 1.402 7.71101 1.402C11.1897 1.402 14.02 4.23229 14.02 7.71101C14.02 11.1897 11.1897 14.02 7.71101 14.02C4.23229 14.02 1.402 11.1897 1.402 7.71101ZM19.3201 19.29C19.1227 19.4869 18.8553 19.5975 18.5765 19.5975C18.2977 19.5975 18.0303 19.4869 17.833 19.29L14.4782 15.9352L13.4313 13.4013L15.9653 14.4481L19.3202 17.8029C19.517 18.0003 19.6276 18.2677 19.6276 18.5465C19.6276 18.8252 19.517 19.0926 19.3201 19.29Z" fill="black" fill-opacity="0.4"/>
</svg>
